<?xml version="1.0" encoding="UTF-8"?>
<svg xmlns="http://www.w3.org/2000/svg" version="1.1" viewBox="0 0 200 200">
  <defs>
    <style>
      .cls-1 {
        fill: #fff;
      }

      .cls-1, .cls-2 {
        fill-rule: evenodd;
      }

      .cls-2 {
        fill: #303030;
      }
    </style>
  </defs>
  <!-- Generator: Adobe Illustrator 28.6.0, SVG Export Plug-In . SVG Version: 1.2.0 Build 709)  -->
  <g>
    <g id="Layer_1">
      <path class="cls-2" d="M100,200c55.2,0,100-44.8,100-100S155.2,0,100,0,0,44.8,0,100s44.8,100,100,100Z"/>
      <g>
        <polygon class="cls-1" points="50.4 128.6 50.4 71.4 100 42.8 149.6 71.4 149.6 86.9 162.4 86.9 162.4 64 131.2 46 100 27.9 68.8 46 37.6 64 37.6 100 37.6 136 68.8 154 100 172.1 131.2 154 162.4 136 162.4 108 149.6 108 140.7 108 140.7 120.8 149.6 120.8 149.6 128.6 100 157.2 50.4 128.6"/>
        <path class="cls-1" d="M63.2,78.8v42.4l12.8,7.4v-34.8l21.4,12.4c11.1,6.4,21.3,12.4,32.1,19.2l7.2-4.1v-42.4l-12.8-7.4c0,11.8,0,23.5,0,35.3-18.3-10.5-36.3-21.1-54.8-31.2l-5.9,3.4Z"/>
        <polygon class="cls-1" points="119.3 74.1 119.3 68.7 100 57.6 74.8 72.1 79.4 74.8 100 62.9 119.3 74.1"/>
        <polygon class="cls-1" points="80.7 125.8 80.7 131.3 100 142.4 124.3 128.4 119.9 125.5 100 137 80.7 125.8"/>
      </g>
    </g>
  </g>
</svg>